<svg height="512" viewBox="0 0 64 64" width="512" xmlns="http://www.w3.org/2000/svg" xmlns:xlink="http://www.w3.org/1999/xlink"><linearGradient id="New_Gradient_Swatch_3" gradientUnits="userSpaceOnUse" x1="57" x2="57" y1="69.253" y2=".751"><stop offset="0" stop-color="#006df0"/><stop offset="1" stop-color="#00e7f0"/></linearGradient><linearGradient id="New_Gradient_Swatch_3-2" x1="11" x2="11" xlink:href="#New_Gradient_Swatch_3" y1="69.253" y2=".751"/><linearGradient id="New_Gradient_Swatch_3-3" x1="15" x2="15" xlink:href="#New_Gradient_Swatch_3" y1="69.253" y2=".751"/><linearGradient id="New_Gradient_Swatch_3-4" x1="19" x2="19" xlink:href="#New_Gradient_Swatch_3" y1="69.253" y2=".751"/><linearGradient id="New_Gradient_Swatch_3-5" x1="26" x2="26" xlink:href="#New_Gradient_Swatch_3" y1="69.253" y2=".751"/><linearGradient id="New_Gradient_Swatch_3-6" x1="33" x2="33" xlink:href="#New_Gradient_Swatch_3" y1="69.253" y2=".751"/><linearGradient id="New_Gradient_Swatch_3-7" x1="25" x2="25" xlink:href="#New_Gradient_Swatch_3" y1="69.253" y2=".751"/><linearGradient id="New_Gradient_Swatch_3-8" x1="32" x2="32" xlink:href="#New_Gradient_Swatch_3" y1="69.253" y2=".751"/><linearGradient id="New_Gradient_Swatch_3-9" x1="40" x2="40" xlink:href="#New_Gradient_Swatch_3" y1="69.253" y2=".751"/><linearGradient id="New_Gradient_Swatch_3-10" x1="29" x2="29" xlink:href="#New_Gradient_Swatch_3" y1="69.253" y2=".751"/><linearGradient id="New_Gradient_Swatch_3-11" x1="39" x2="39" xlink:href="#New_Gradient_Swatch_3" y1="69.253" y2=".751"/><linearGradient id="New_Gradient_Swatch_3-13" x1="16" x2="16" xlink:href="#New_Gradient_Swatch_3" y1="69.253" y2=".751"/><g id="Design_webpage" data-name="Design webpage"><path d="m61 42h-1v-21a3 3 0 0 0 -6 0v21h-1a1 1 0 0 0 -1 1v4a1 1 0 0 0 1 1v7a1 1 0 0 0 1 1h6a1 1 0 0 0 1-1v-7a1 1 0 0 0 1-1v-4a1 1 0 0 0 -1-1zm-5-21a1 1 0 0 1 2 0v21h-2zm-2 23h6v2h-6zm1 4h1v6h-1zm4 6h-1v-6h1z" fill="url(#New_Gradient_Swatch_3)"/><path d="m10 9h2v2h-2z" fill="url(#New_Gradient_Swatch_3-2)"/><path d="m14 9h2v2h-2z" fill="url(#New_Gradient_Swatch_3-3)"/><path d="m18 9h2v2h-2z" fill="url(#New_Gradient_Swatch_3-4)"/><path d="m47 18h-1v-11a1 1 0 0 0 -1-1h-38a1 1 0 0 0 -1 1v11h-1a3 3 0 0 0 -3 3v28a3 3 0 0 0 3 3h15v4h-5a3 3 0 0 0 0 6h23a3 3 0 0 0 0-6h-6v-4h15a3 3 0 0 0 3-3v-28a3 3 0 0 0 -3-3zm-39-10h36v4h-36zm0 6h36v32h-36zm30 44a1 1 0 0 1 0 2h-23a1 1 0 0 1 0-2zm-16-2v-4h8v4zm26-7a1 1 0 0 1 -1 1h-42a1 1 0 0 1 -1-1v-28a1 1 0 0 1 1-1h1v27a1 1 0 0 0 1 1h38a1 1 0 0 0 1-1v-27h1a1 1 0 0 1 1 1z" fill="url(#New_Gradient_Swatch_3-5)"/><path d="m41 17h-16a1 1 0 0 0 -1 1v10a1 1 0 0 0 1 1h16a1 1 0 0 0 1-1v-10a1 1 0 0 0 -1-1zm-1 2v6.149l-2.219-2.774a1 1 0 0 0 -1.561 0l-1.591 1.985-2.816-3.941a1 1 0 0 0 -1.57-.072l-4.243 4.917v-6.264zm-3.486 8-.678-.949 1.164-1.451 1.92 2.4zm-2.457 0h-6.914l3.783-4.383z" fill="url(#New_Gradient_Swatch_3-6)"/><path d="m24 31h2v2h-2z" fill="url(#New_Gradient_Swatch_3-7)"/><path d="m28 31h8v2h-8z" fill="url(#New_Gradient_Swatch_3-8)"/><path d="m38 31h4v2h-4z" fill="url(#New_Gradient_Swatch_3-9)"/><path d="m24 35h10v2h-10z" fill="url(#New_Gradient_Swatch_3-10)"/><path d="m36 35h6v2h-6z" fill="url(#New_Gradient_Swatch_3-11)"/><path d="m41 44h-30a1 1 0 0 1 -1-1v-3a1 1 0 0 1 1-1h30a1 1 0 0 1 1 1v3a1 1 0 0 1 -1 1zm-29-2h28v-1h-28z" fill="url(#New_Gradient_Swatch_3-5)"/><g fill="url(#New_Gradient_Swatch_3-13)"><path d="m21 29h-10a1 1 0 0 1 -1-1v-10a1 1 0 0 1 1-1h10a1 1 0 0 1 1 1v10a1 1 0 0 1 -1 1zm-9-2h8v-8h-8z"/><path d="m21 37h-10a1 1 0 0 1 -1-1v-4a1 1 0 0 1 1-1h10a1 1 0 0 1 1 1v4a1 1 0 0 1 -1 1zm-9-2h8v-2h-8z"/></g></g></svg>